<svg width="128" height="128" viewBox="0 0 128 128" fill="none" xmlns="http://www.w3.org/2000/svg">
  <rect width="128" height="128" rx="28" fill="url(#paint0_linear)" />
  <rect x="24" y="24" width="28" height="28" rx="8" fill="white" fill-opacity="0.96" />
  <rect x="34" y="34" width="8" height="8" rx="2" fill="#127360" />
  <rect x="76" y="24" width="28" height="28" rx="8" fill="white" fill-opacity="0.96" />
  <rect x="86" y="34" width="8" height="8" rx="2" fill="#127360" />
  <rect x="24" y="76" width="28" height="28" rx="8" fill="white" fill-opacity="0.96" />
  <rect x="34" y="86" width="8" height="8" rx="2" fill="#127360" />
  <rect x="72" y="72" width="8" height="8" rx="2" fill="white" />
  <rect x="84" y="72" width="20" height="8" rx="2" fill="white" />
  <rect x="72" y="84" width="8" height="20" rx="2" fill="white" />
  <rect x="84" y="84" width="8" height="8" rx="2" fill="white" />
  <rect x="96" y="96" width="8" height="8" rx="2" fill="white" />
  <defs>
    <linearGradient id="paint0_linear" x1="12" y1="8" x2="116" y2="120" gradientUnits="userSpaceOnUse">
      <stop stop-color="#127360" />
      <stop offset="1" stop-color="#EA580C" />
    </linearGradient>
  </defs>
</svg>
