<svg width="128" height="128" viewBox="0 0 128 128" fill="none" xmlns="http://www.w3.org/2000/svg">
  <rect width="128" height="128" rx="30" fill="url(#pr_bg)" />
  <rect width="128" height="128" rx="30" fill="url(#pr_glow)" />

  <!-- QR finder squares -->
  <g>
    <rect x="22" y="22" width="26" height="26" rx="8" fill="white" fill-opacity="0.96" />
    <rect x="30" y="30" width="10" height="10" rx="3" fill="#146b34" />
    <rect x="80" y="22" width="26" height="26" rx="8" fill="white" fill-opacity="0.96" />
    <rect x="88" y="30" width="10" height="10" rx="3" fill="#146b34" />
    <rect x="22" y="80" width="26" height="26" rx="8" fill="white" fill-opacity="0.96" />
    <rect x="30" y="88" width="10" height="10" rx="3" fill="#146b34" />
  </g>

  <!-- Radar sweep (bottom-right) -->
  <g stroke="white" stroke-width="5" stroke-linecap="round" fill="none">
    <path d="M58 92 A34 34 0 0 1 92 58" stroke-opacity="0.5" />
    <path d="M68 92 A24 24 0 0 1 92 68" stroke-opacity="0.72" />
    <path d="M78 92 A14 14 0 0 1 92 78" stroke-opacity="0.92" />
    <path d="M92 92 L68 68" stroke-opacity="0.95" />
  </g>
  <circle cx="92" cy="92" r="4.5" fill="white" />
  <circle cx="78.5" cy="78.5" r="3.5" fill="white" />

  <defs>
    <linearGradient id="pr_bg" x1="12" y1="8" x2="116" y2="120" gradientUnits="userSpaceOnUse">
      <stop stop-color="#63d471" />
      <stop offset="1" stop-color="#146b34" />
    </linearGradient>
    <radialGradient id="pr_glow" cx="0" cy="0" r="1" gradientUnits="userSpaceOnUse" gradientTransform="translate(36 28) rotate(45) scale(120)">
      <stop stop-color="white" stop-opacity="0.22" />
      <stop offset="1" stop-color="white" stop-opacity="0" />
    </radialGradient>
  </defs>
</svg>
